<?xml version="1.0" encoding="UTF-8"?>
<!DOCTYPE svg PUBLIC "-//W3C//DTD SVG 1.1//EN" "http://www.w3.org/Graphics/SVG/1.1/DTD/svg11.dtd">
<!-- Creator: CorelDRAW 2020 (64 Bit) -->
<svg xmlns="http://www.w3.org/2000/svg" xml:space="preserve" width="101.6mm" height="101.6mm" version="1.1" style="shape-rendering:geometricPrecision; text-rendering:geometricPrecision; image-rendering:optimizeQuality; fill-rule:evenodd; clip-rule:evenodd"
viewBox="0 0 10160 10160"
 xmlns:xlink="http://www.w3.org/1999/xlink"
 xmlns:xodm="http://www.corel.com/coreldraw/odm/2003">
 <defs>
  <style type="text/css">
   <![CDATA[
    .fil2 {fill:#254256}
    .fil1 {fill:#FEFEFE}
    .fil0 {fill:#FF5841}
   ]]>
  </style>
 </defs>
 <g id="Camada_x0020_1">
  <metadata id="CorelCorpID_0Corel-Layer"/>
  <g id="_1470485306992">
   <path class="fil0" d="M5663.49 4627.88l663.14 14.09 -1.26 1039.89 -663.62 -1.48 1.74 -1052.5zm-2577.46 481.46l9.72 2605.63 1.66 259.18 1356.58 1.48c-4.38,-503.81 -109.68,-1441.83 175.09,-1737.62 135.27,-140.49 416.64,-260.76 694.25,-195.81 227.02,53.12 476.98,268.54 476.34,507.57 108.82,116.86 43.99,1194.61 41.36,1434.08l1409.6 -7.32 2.73 -264.2 2.32 -2602.97c-3.78,-5.12 -10.19,-11.84 -12.63,-14.33l-42.55 -41.57c-20.76,-17.71 -46.77,-35.37 -69.62,-51.64l-1449.85 -1037.14c-148.81,-102.47 -392.81,-260.35 -510.56,-370.07 -147.7,61.87 -871.66,611.3 -1055.17,748.32l-924.85 672.32c-12.47,9.07 -61.11,48.15 -65.91,52.5 -31.34,28.43 -28.82,28.37 -38.51,41.59z"/>
   <path class="fil1" d="M3993.53 3358.17c-183.41,-23.05 -152.8,-392.29 -669.31,-204.64 -226.5,82.28 -393.4,226.42 -672.26,247.83 -611.73,46.95 -1049.39,-682.52 -730.73,-938.22 181.77,36.76 63.19,117.51 71.11,287.77 5.89,126.89 78.81,234.24 145.94,305.6 482.59,512.92 922.66,-106.94 1435.4,-101.64 256.9,2.64 627.8,202.86 419.85,403.3zm-316.02 910.44c240.62,-139.88 492.36,-352.38 730.7,-523.18 128.98,-92.42 242.57,-179.4 372.56,-271.84 124.1,-88.24 232.51,-184.18 361.41,-263.99l139.03 79c48.81,-426.69 -210.49,-705.3 -556.7,-790.56 -326.67,-80.45 -562.18,15.87 -816.68,164.53 -1.36,0.8 -103.63,53.45 -105.56,53.91 -341.61,82.26 43.68,-401.5 -398.02,-864.32 -187.08,-196.02 -470.76,-325.97 -844.95,-305.99 -1206.76,64.41 -1861.74,1701.24 -732.64,2588.84 209.28,164.53 521.8,271.1 856.45,274.66 422.7,4.51 662.81,-120.98 994.4,-141.06z"/>
   <path class="fil1" d="M4453.99 7975.63l1362.98 6.46c-4.15,-217.9 -41.05,-1320.91 -17.3,-1432.32 0.64,-239.03 -249.32,-454.45 -476.34,-507.57 -277.61,-64.95 -558.98,55.32 -694.25,195.81 -284.77,295.79 -179.47,1233.81 -175.09,1737.62z"/>
   <path class="fil2" d="M3677.51 4268.61c-268.38,243.5 -1016.78,659.93 -991.62,845.89 34.59,255.54 307.16,44.12 400.14,-5.16 9.69,-13.22 7.17,-13.16 38.51,-41.59 4.8,-4.35 53.44,-43.43 65.91,-52.5l924.85 -672.32c183.51,-137.02 907.47,-686.45 1055.17,-748.32 117.75,109.72 361.75,267.6 510.56,370.07l1449.85 1037.14c22.85,16.27 48.86,33.93 69.62,51.64l42.55 41.57c2.44,2.49 8.85,9.21 12.63,14.33 152.57,88.2 195.74,166.09 374.01,81.6 59.32,-229.8 -51.49,-256.61 -402.11,-501.24 -186.72,-130.28 -369.93,-263.2 -555.64,-399.25 -154.59,-113.01 -317.17,-231.18 -482.14,-343.76 -160.59,-109.6 -357.26,-228.07 -471.11,-349.45 -141.9,-78.66 -323.93,-218.98 -437.48,-308.66l-139.03 -79c-128.9,79.81 -237.31,175.75 -361.41,263.99 -129.99,92.44 -243.58,179.42 -372.56,271.84 -238.34,170.8 -490.08,383.3 -730.7,523.18z"/>
   <path class="fil0" d="M5718.69 3597.26c113.85,121.38 310.52,239.85 471.11,349.45 164.97,112.58 327.55,230.75 482.14,343.76 3.52,-394.01 40.18,-1350.35 -21.82,-1669.07 -158.86,-60.36 -745.24,-56.93 -904.18,1.79l-27.25 974.07z"/>
   <path class="fil0" d="M3993.53 3358.17c207.95,-200.44 -162.95,-400.66 -419.85,-403.3 -512.74,-5.3 -952.81,614.56 -1435.4,101.64 -67.13,-71.36 -140.05,-178.71 -145.94,-305.6 -7.92,-170.26 110.66,-251.01 -71.11,-287.77 -318.66,255.7 119,985.17 730.73,938.22 278.86,-21.41 445.76,-165.55 672.26,-247.83 516.51,-187.65 485.9,181.59 669.31,204.64z"/>
   <path class="fil1" d="M5790.75 5225.33l405.26 -1.68 8.34 315.4 -417.42 15.17 3.82 -328.89zm4.06 -466.93l409.25 5.62 -5.02 322.68 -412.05 -1.58 7.82 -326.72zm-133.06 921.98l663.62 1.48 1.26 -1039.89 -663.14 -14.09 -1.74 1052.5z"/>
   <path class="fil2" d="M3097.41 7974.15l-1.66 -259.18c-264.23,-10.93 -773.81,-42.2 -969.35,36.02 -49.01,279.96 126.29,228.17 372.42,226.15 199.07,-1.63 400.24,3 598.59,-2.99z"/>
   <path class="fil2" d="M7250.63 7976.53c206.68,-2.21 413.62,-0.7 620.36,0.93 242.02,1.91 391.96,34.79 344.19,-230.01 -199.56,-79.13 -693.51,-35.6 -961.82,-35.12l-2.73 264.2z"/>
   <polygon class="fil0" points="5786.99,5085.12 6199.04,5086.7 6204.06,4764.02 5794.81,4758.4 "/>
   <polygon class="fil0" points="5786.93,5554.22 6204.35,5539.05 6196.01,5223.65 5790.75,5225.33 "/>
  </g>
 </g>
</svg>
